<svg xmlns="http://www.w3.org/2000/svg" viewBox="0 0 486.89 351"><defs><style>.cls-1{fill:#919191;}.cls-2{fill:#fff;}</style></defs><title>u+ white</title><g id="W_B_shadow" data-name="W &amp; B shadow"><polygon class="cls-1" points="145.37 76.68 155.31 86.62 200.78 49.58 182.71 31.22 145.37 76.68"/><rect class="cls-1" x="220.65" y="101.08" width="20.17" height="123.84"/><rect class="cls-1" x="89.66" y="101.08" width="20.17" height="123.84"/><polygon class="cls-1" points="388.36 169.65 388.36 152.66 333.09 152.66 333.09 97.64 316.1 97.64 316.1 152.66 261.08 152.66 261.08 169.65 316.1 169.65 316.1 224.92 333.09 224.92 333.09 169.65 388.36 169.65"/><path class="cls-1" d="M164.94,328.42c40.35,0,75.58-32.82,75.89-75.58v-8.37H220.65v8.37c-.3,30.71-25.29,55.4-55.41,55.4a55.51,55.51,0,0,1-55.4-55.7v-8.07H89.66v8.07C89.66,295,122.18,328.42,164.94,328.42Z"/><polygon class="cls-2" points="142.37 73.68 152.31 83.62 197.78 46.58 179.71 28.22 142.37 73.68"/><rect class="cls-2" x="217.65" y="98.08" width="20.17" height="123.84"/><rect class="cls-2" x="86.66" y="98.08" width="20.17" height="123.84"/><polygon class="cls-2" points="385.36 166.65 385.36 149.66 330.09 149.66 330.09 94.64 313.1 94.64 313.1 149.66 258.08 149.66 258.08 166.65 313.1 166.65 313.1 221.92 330.09 221.92 330.09 166.65 385.36 166.65"/><path class="cls-2" d="M161.94,325.42c40.35,0,75.58-32.82,75.89-75.58v-8.37H217.65v8.37c-.3,30.71-25.29,55.4-55.41,55.4a55.51,55.51,0,0,1-55.4-55.7v-8.07H86.66v8.07C86.66,292,119.18,325.42,161.94,325.42Z"/></g></svg>