<svg xmlns="http://www.w3.org/2000/svg" viewBox="0 0 486.89 351"><defs><style>.cls-1{fill:#d3d3d3;}.cls-2{fill:#00bca4;}.cls-3{fill:#0094d7;}</style></defs><title>u+ color shadow</title><g id="Color_shadow" data-name="Color shadow"><polygon class="cls-1" points="150.87 73.69 160.81 83.62 206.28 46.58 188.21 28.22 150.87 73.69"/><rect class="cls-1" x="226.15" y="98.08" width="20.17" height="123.84"/><rect class="cls-1" x="95.16" y="98.08" width="20.17" height="123.84"/><polygon class="cls-1" points="393.86 166.65 393.86 149.66 338.59 149.66 338.59 94.64 321.6 94.64 321.6 149.66 266.58 149.66 266.58 166.65 321.6 166.65 321.6 221.92 338.59 221.92 338.59 166.65 393.86 166.65"/><path class="cls-1" d="M170.44,325.42c40.35,0,75.58-32.82,75.88-75.58v-8.37H226.15v8.37c-.3,30.71-25.29,55.4-55.41,55.4a55.51,55.51,0,0,1-55.4-55.7v-8.07H95.16v8.07C95.16,292,127.68,325.42,170.44,325.42Z"/><polygon class="cls-2" points="147.87 70.69 157.81 80.62 203.28 43.58 185.21 25.22 147.87 70.69"/><rect class="cls-2" x="223.15" y="95.08" width="20.17" height="123.84"/><rect class="cls-2" x="92.16" y="95.08" width="20.17" height="123.84"/><polygon class="cls-2" points="390.86 163.65 390.86 146.66 335.59 146.66 335.59 91.64 318.6 91.64 318.6 146.66 263.58 146.66 263.58 163.65 318.6 163.65 318.6 218.92 335.59 218.92 335.59 163.65 390.86 163.65"/><path class="cls-3" d="M167.44,322.42c40.35,0,75.58-32.82,75.88-75.58v-8.37H223.15v8.37c-.3,30.71-25.29,55.4-55.41,55.4a55.51,55.51,0,0,1-55.4-55.7v-8.07H92.16v8.07C92.16,289,124.68,322.42,167.44,322.42Z"/></g></svg>